<?xml version="1.0" encoding="UTF-8" standalone="no"?>
<!-- Created with Inkscape (http://www.inkscape.org/) -->

<svg
   width="130mm"
   height="145mm"
   viewBox="0 0 130 145"
   version="1.1"
   id="svg1"
   xml:space="preserve"
   inkscape:version="1.4.2 (f4327f4, 2025-05-13)"
   sodipodi:docname="code-cocktails-logo.svg"
   xmlns:inkscape="http://www.inkscape.org/namespaces/inkscape"
   xmlns:sodipodi="http://sodipodi.sourceforge.net/DTD/sodipodi-0.dtd"
   xmlns="http://www.w3.org/2000/svg"
   xmlns:svg="http://www.w3.org/2000/svg"><sodipodi:namedview
     id="namedview1"
     pagecolor="#ffffff"
     bordercolor="#000000"
     borderopacity="0.25"
     inkscape:showpageshadow="2"
     inkscape:pageopacity="0.0"
     inkscape:pagecheckerboard="0"
     inkscape:deskcolor="#d1d1d1"
     inkscape:document-units="mm"
     inkscape:zoom="0.71891835"
     inkscape:cx="138.40237"
     inkscape:cy="166.22194"
     inkscape:window-width="1920"
     inkscape:window-height="1009"
     inkscape:window-x="-8"
     inkscape:window-y="-8"
     inkscape:window-maximized="1"
     inkscape:current-layer="layer1" /><defs
     id="defs1"><clipPath
       clipPathUnits="userSpaceOnUse"
       id="clipPath1"><path
         style="fill:#000000;stroke-width:1"
         d="M -27.013162,146.54741 V 11.080747 H 108.4535 243.92016 V 146.54741 282.01406 H 108.4535 -27.013162 Z m 85.611719,62.53434 c 2.983058,-0.99859 5.363839,-3.46249 6.033592,-6.24424 l 0.175184,-0.72761 h -1.985865 -1.985865 l -0.361016,0.86403 c -0.459758,1.10036 -1.964184,2.42636 -3.224918,2.84244 -1.515185,0.50005 -3.601628,0.21474 -5.070452,-0.69336 -0.957754,-0.59214 -1.45801,-1.16018 -2.062287,-2.34175 -0.726556,-1.42067 -0.796872,-1.78613 -0.787373,-4.09223 0.0086,-2.09339 0.116213,-2.74872 0.620802,-3.78126 1.213327,-2.48284 3.59868,-3.88137 6.047605,-3.54571 2.151833,0.29494 4.078042,1.69612 4.468093,3.25021 0.146434,0.58343 0.274532,0.61847 2.26104,0.61847 2.411015,0 2.371852,0.091 1.106807,-2.57288 -1.574223,-3.31498 -5.957485,-5.34369 -10.03614,-4.64505 -3.449826,0.59093 -5.661158,2.22057 -7.178099,5.28989 -0.919736,1.86096 -1.002098,2.21874 -1.096242,4.76202 -0.106186,2.86854 0.156776,4.40115 1.070628,6.23992 1.075764,2.16454 3.362135,4.05428 5.843466,4.82975 1.578991,0.49347 4.606938,0.4676 6.16104,-0.0526 z m 19.001017,-0.10419 c 2.96871,-1.11074 4.680151,-3.58321 4.869704,-7.03512 0.162251,-2.95473 -0.380145,-4.53558 -2.170424,-6.32586 -1.592488,-1.59249 -3.201734,-2.23793 -5.579727,-2.23793 -2.19361,0 -3.842054,0.61236 -5.386493,2.00094 -2.369214,2.13013 -3.173048,5.72362 -2.034723,9.09612 1.327648,3.93341 6.167755,6.04854 10.301663,4.50185 z m -4.310546,-2.96814 c -0.495512,-0.1802 -1.269013,-0.78468 -1.718895,-1.34328 -0.731054,-0.90773 -0.826132,-1.23102 -0.894842,-3.04271 -0.06527,-1.7209 0.01453,-2.18276 0.52827,-3.05786 1.540671,-2.62433 5.005588,-2.67306 6.913681,-0.0972 0.753653,1.01739 0.90986,3.55255 0.314889,5.11046 -0.801468,2.09861 -3.086561,3.17855 -5.143103,2.43063 z m 22.067596,2.78208 c 1.351979,-0.70236 2.638174,-2.04473 3.161591,-3.29966 0.734933,-1.76206 0.628714,-1.92673 -1.24288,-1.92673 -1.61249,0 -1.667547,0.0233 -2.187281,0.92604 -1.423527,2.47254 -4.949063,2.3846 -6.407806,-0.15983 -0.450287,-0.78542 -0.591995,-1.45794 -0.595313,-2.82523 -0.0076,-3.14389 1.110237,-4.70251 3.499342,-4.87908 1.665158,-0.12307 2.999296,0.56756 3.461404,1.79182 0.288782,0.76507 0.332756,0.78066 2.202563,0.78066 h 1.9079 l -0.213106,-0.74306 c -0.899607,-3.13675 -3.57541,-5.06615 -7.025997,-5.06615 -3.162213,0 -5.437825,1.39026 -6.797998,4.15316 -0.747281,1.51795 -0.847526,1.97974 -0.840631,3.87257 0.006,1.65165 0.149069,2.47243 0.618016,3.54595 0.721921,1.65264 2.686106,3.53457 4.315137,4.13445 1.570871,0.57845 4.748147,0.42081 6.145059,-0.30491 z m 40.878126,0.17534 c 0.65484,-0.29688 1.46134,-0.79393 1.79222,-1.10455 l 0.60159,-0.56476 -0.0724,0.91191 -0.0724,0.91192 h 1.85208 1.85208 v -5.82083 c 0,-5.71789 -0.0117,-5.8417 -0.66146,-7.00062 -0.41834,-0.74615 -1.12946,-1.46895 -1.93475,-1.96653 -1.08099,-0.66791 -1.60989,-0.80441 -3.5018,-0.90371 -2.01597,-0.10581 -2.36786,-0.0488 -3.68984,0.598 -1.60754,0.7865 -2.68505,1.9858 -2.94302,3.27568 l -0.16756,0.8378 h 1.58971 c 1.35355,0 1.60975,-0.0766 1.72462,-0.51588 0.19165,-0.73288 1.74167,-1.59863 2.86425,-1.59979 1.36343,-10e-4 2.69166,0.96899 2.9957,2.18866 0.13453,0.53967 0.19406,1.03011 0.13229,1.08986 -0.0618,0.0598 -1.19092,0.23894 -2.50922,0.39821 -3.36847,0.40694 -4.8898,0.91984 -6.21403,2.09499 -1.061,0.94156 -1.14567,1.11744 -1.25314,2.6032 -0.13638,1.88543 0.28622,2.89579 1.64452,3.93182 1.68681,1.28659 3.99204,1.53161 5.97061,0.63462 z m -2.90242,-2.69748 c -0.3594,-0.18186 -0.83565,-0.65635 -1.05833,-1.05443 -0.90805,-1.62328 0.98051,-3.0405 4.39592,-3.29881 l 2.02958,-0.15349 -0.16554,1.39772 c -0.091,0.76876 -0.35722,1.69028 -0.5915,2.04783 -0.80319,1.22582 -3.19618,1.77665 -4.61013,1.06118 z m 34.34354,2.84064 c 2.59934,-0.77192 3.95156,-2.63371 3.67768,-5.06357 -0.2303,-2.04328 -1.67159,-3.09355 -5.59602,-4.07783 -2.52255,-0.63267 -3.59362,-1.28912 -3.59362,-2.20252 0,-0.90143 0.891,-1.54068 2.31243,-1.65906 1.43838,-0.1198 2.42461,0.29385 2.88042,1.20812 0.27001,0.54158 0.51295,0.62344 1.9475,0.65624 l 1.639,0.0375 -0.14011,-0.86241 c -0.21044,-1.29524 -1.07827,-2.32148 -2.60758,-3.08357 -1.1176,-0.55693 -1.74489,-0.68315 -3.37163,-0.67842 -2.25355,0.007 -3.64744,0.50482 -4.87394,1.74226 -0.94248,0.95088 -1.22567,1.67288 -1.22567,3.12482 0,2.35548 1.70174,3.73983 5.72779,4.65953 2.6676,0.60938 3.35748,1.09852 3.22173,2.28429 -0.12159,1.06207 -1.51538,1.75363 -3.17463,1.57517 -1.50488,-0.16185 -2.24484,-0.59178 -2.6708,-1.55177 -0.30253,-0.68181 -0.42703,-0.72761 -1.97805,-0.72761 -1.49219,0 -1.65521,0.0534 -1.65521,0.54231 0,0.75773 0.60821,1.8398 1.52251,2.70871 1.71824,1.63292 5.10525,2.21507 7.9582,1.36783 z m -62.66195,-2.20357 c 0,-2.3411 0.003,-2.35008 0.99218,-3.44331 l 0.99219,-1.09609 2.12353,3.37717 2.12354,3.37716 2.07646,0.0779 c 1.61474,0.0606 2.04721,0.002 1.94493,-0.26488 -0.0723,-0.18851 -1.40348,-2.28856 -2.95809,-4.66678 l -2.82658,-4.32404 1.38553,-1.4965 c 0.76205,-0.82308 2.09036,-2.24064 2.95181,-3.15015 l 1.56628,-1.65364 h -2.2231 -2.22309 l -2.89665,3.31733 -2.89665,3.31733 -0.071,-6.07309 -0.071,-6.0731 -1.71552,-0.0885 -1.71553,-0.0885 5.3e-4,10.64947 5.3e-4,10.64948 h 1.71979 1.7198 z m 21.16666,0.75972 v -1.5875 h -1.14962 c -1.9801,0 -2.14312,-0.38673 -2.24202,-5.31863 l -0.0844,-4.20637 h 1.73799 1.738 v -1.4552 -1.45521 h -1.71979 -1.71979 v -2.11667 -2.11667 h -1.85209 -1.85208 v 2.11667 2.11667 h -1.19062 -1.19063 v 1.45521 1.4552 h 1.19063 1.19062 v 4.13649 c 0,4.513 0.22417,5.70462 1.32011,7.01738 0.89611,1.0734 2.06283,1.50035 4.17,1.526 l 1.65364,0.0201 z m 22.75417,-6.21771 v -7.8052 h -1.85209 -1.85208 v 7.8052 7.80521 h 1.85208 1.85209 z m 6.87916,-2.77812 v -10.58333 l -1.78593,-10e-6 h -1.78594 l 0.0631,10.51719 c 0.0347,5.78446 0.0644,10.54696 0.0661,10.58334 0.002,0.0364 0.77699,0.0661 1.72287,0.0661 h 1.71979 z m -7.13695,-8.07703 c 1.20903,-1.28695 0.61694,-3.32748 -1.07325,-3.69871 -1.61681,-0.35511 -3.21469,1.39464 -2.6441,2.8954 0.5753,1.51316 2.63279,1.95778 3.71735,0.80331 z m -76.332169,-9.14456 c 3.127126,-0.57808 5.44504,-2.23105 6.727568,-4.79761 1.149927,-2.30121 1.138486,-2.32495 -1.112089,-2.3081 l -1.918229,0.0144 -0.79375,1.2424 c -1.828252,2.86165 -6.149649,3.30806 -8.689335,0.89764 -1.355486,-1.28649 -1.848768,-2.59843 -1.973241,-5.24809 -0.171392,-3.64845 0.729657,-5.79668 2.985984,-7.11898 2.729884,-1.59981 6.972419,-0.39737 8.086342,2.29189 0.307784,0.74304 0.366122,0.76267 2.268183,0.76267 2.233596,0 2.246122,-0.0193 1.313942,-2.02132 -1.322361,-2.84003 -3.719068,-4.57165 -7.068008,-5.10664 -6.793349,-1.08525 -12.05556,4.21869 -11.534399,11.62586 0.397338,5.64734 4.277172,9.64352 9.733293,10.02519 0.227936,0.0159 1.116118,-0.10073 1.973739,-0.25928 z m 19.617877,-0.37197 c 3.834477,-1.13872 6.202477,-5.89439 4.998022,-10.03757 -1.120458,-3.85424 -3.760015,-5.77509 -7.882866,-5.73649 -4.259795,0.0399 -7.23088,2.97261 -7.551526,7.45403 -0.178443,2.49399 0.418428,4.33931 1.957112,6.0507 1.19498,1.3291 2.186697,2.00698 3.537128,2.41776 1.119629,0.34058 3.540262,0.26788 4.94213,-0.14843 z m -4.014377,-3.17753 c -2.973983,-1.05361 -3.752146,-5.82447 -1.342969,-8.23365 1.540899,-1.5409 4.127971,-1.52098 5.603118,0.0431 2.358083,2.5003 1.340628,7.47106 -1.702226,8.31621 -1.207267,0.33532 -1.264632,0.3325 -2.557923,-0.12569 z m 20.292549,2.89566 c 0.48076,-0.24268 1.20154,-0.74757 1.60172,-1.12198 l 0.72761,-0.68076 v 1.10784 1.10783 h 1.85208 1.85208 v -10.58333 -10.58333 h -1.85208 -1.85208 v 3.73157 3.73158 l -0.90335,-0.79315 c -1.22058,-1.07169 -2.5291,-1.45729 -4.51594,-1.33077 -7.555513,0.4811 -8.531476,13.01573 -1.22571,15.74212 1.15243,0.43007 3.10885,0.28155 4.31567,-0.32762 z m -3.11482,-3.03177 c -2.81807,-1.39495 -3.25806,-6.24464 -0.76513,-8.43346 0.79943,-0.70191 1.14407,-0.82184 2.36172,-0.82184 2.52336,0 3.84756,1.68532 3.84756,4.89684 0,2.31651 -0.64129,3.58532 -2.19136,4.33569 -1.42914,0.69184 -1.89456,0.69509 -3.25279,0.0228 z m 22.83347,2.95758 c 1.27249,-0.65454 2.62867,-1.94747 3.32928,-3.17401 l 0.47798,-0.83679 h -1.95833 c -1.65409,0 -2.03653,0.0864 -2.46173,0.55626 -1.24609,1.37692 -3.4694,1.66327 -5.02092,0.64667 -0.72149,-0.47273 -1.68569,-2.28513 -1.69567,-3.1873 -0.006,-0.51433 0.14996,-0.52758 5.55044,-0.47258 l 5.55629,0.0566 v -1.56801 c 0,-2.87713 -1.52753,-5.61889 -3.78264,-6.78949 -1.07863,-0.55989 -4.21633,-0.76856 -5.66509,-0.37674 -1.7938,0.48513 -3.26609,1.79793 -4.3106,3.84363 -0.83783,1.64091 -0.92498,2.01784 -0.91488,3.95702 0.0183,3.51572 1.37171,5.89581 4.15233,7.30227 1.51806,0.76784 1.8241,0.829 3.64171,0.72778 1.34257,-0.0748 2.3458,-0.29641 3.10183,-0.68529 z m -7.19315,-9.63319 c 0.97027,-3.25102 5.62237,-3.91542 7.12119,-1.01703 0.82711,1.59946 0.79959,1.61234 -3.44457,1.61234 h -3.85429 z m 28.03612,9.76191 c 0.7276,-0.3398 1.6908,-0.92849 2.14043,-1.3082 l 0.81752,-0.69037 0.83067,1.17848 0.83068,1.17849 h 1.98983 c 1.0944,0 1.98982,-0.0582 1.98982,-0.1293 0,-0.0711 -0.728,-1.15364 -1.61778,-2.40562 l -1.61778,-2.27633 0.93742,-2.02615 c 0.51559,-1.11438 1.0554,-2.47262 1.19959,-3.01833 l 0.26215,-0.99219 h -1.66385 -1.66384 l -0.14197,0.87485 c -0.0781,0.48116 -0.32726,1.3183 -0.55373,1.86032 l -0.41175,0.98547 -1.86215,-2.00832 c -1.02418,-1.10458 -1.85486,-2.09055 -1.84597,-2.19105 0.009,-0.1005 0.51043,-0.5416 1.11453,-0.98022 2.7036,-1.96303 3.50482,-4.81065 1.93327,-6.87106 -0.97175,-1.27403 -2.5287,-1.97552 -4.40108,-1.98292 -4.53068,-0.0179 -7.07538,4.26941 -4.75222,8.00659 0.75403,1.21298 0.79015,1.36347 0.3821,1.59183 -1.019,0.57026 -2.49802,2.14149 -3.00856,3.19612 -0.71781,1.48279 -0.72989,3.79091 -0.0271,5.16857 1.51147,2.96274 5.93376,4.33656 9.13973,2.83934 z m -4.26294,-2.79692 c -0.95579,-0.41082 -1.69019,-1.59022 -1.69019,-2.71433 0,-1.22816 0.4594,-2.19185 1.52989,-3.20926 l 0.78338,-0.74454 2.34909,2.53006 c 1.29201,1.39153 2.3491,2.6674 2.3491,2.83526 0,0.90992 -3.97255,1.88252 -5.32127,1.30281 z m 1.28569,-10.40457 c -0.5649,-0.70792 -1.1238,-2.05612 -1.1238,-2.71087 0,-1.01647 1.09761,-1.98549 2.24896,-1.98549 0.65597,0 1.15115,0.20105 1.59953,0.64943 0.98355,0.98355 0.84399,1.87147 -0.50638,3.22184 -1.18919,1.1892 -1.75872,1.40103 -2.21831,0.82509 z m -30.90832,-18.07671 c 0.22868,-0.22868 0.41578,-0.60626 0.41578,-0.83907 0,-1.01048 -0.79822,-1.32399 -5.96565,-2.34309 l -5.14685,-1.01505 v -14.29755 -14.29755 l 10.51718,-13.90557 c 5.78446,-7.648068 10.7961,-14.255388 11.137,-14.682939 l 0.61981,-0.777367 4.06868,4.153363 4.06867,4.153363 0.78823,-0.956257 c 2.83181,-3.435477 4.12328,-8.998892 3.05999,-13.181859 -1.80489,-7.100367 -8.28501,-12.264565 -15.41916,-12.287973 -3.16457,-0.01037 -7.82962,1.515089 -9.96796,3.259527 l -0.78485,0.64027 4.62131,4.518282 4.6213,4.518284 -21.779368,0.0118 c -14.316295,0.0078 -21.952662,0.104556 -22.285082,0.282462 -0.854363,0.457242 -1.125704,1.236784 -0.716211,2.057633 0.311488,0.62439 21.960049,29.327411 23.652711,31.360251 l 0.62275,0.7479 v 14.34187 14.34186 l -5.203625,1.04681 c -2.861993,0.57575 -5.362305,1.2055 -5.55625,1.39945 -0.499557,0.49955 -0.437198,1.56219 0.110392,1.88113 0.295166,0.17192 4.748448,0.2726 12.284223,0.27773 10.40084,0.007 11.87116,-0.0419 12.23698,-0.40772 z M 84.085472,89.447862 81.54557,85.825534 92.108827,85.756369 c 5.809792,-0.03804 15.263243,-0.03804 21.007673,0 l 10.44442,0.06916 -2.71881,3.638021 -2.7188,3.638021 -15.74897,-0.01569 -15.748966,-0.01569 z M 131.08845,88.09237 c -1.73905,-1.746218 -3.10827,-3.222956 -3.0427,-3.281643 0.0656,-0.05869 1.19077,-0.493554 2.50046,-0.966372 1.30968,-0.472821 2.48259,-0.952855 2.60645,-1.066742 0.73244,-0.673457 -1.48574,-4.484444 -3.45235,-5.931384 -1.69053,-1.243804 -4.05164,-2.156577 -4.35225,-1.682512 -0.11965,0.188688 -0.53185,1.295567 -0.91599,2.459733 -0.38415,1.164167 -0.78839,2.215441 -0.89832,2.336163 -0.10993,0.120724 -1.64381,-1.224447 -3.40863,-2.989265 l -3.20877,-3.208764 0.90384,-0.377645 c 2.67258,-1.116679 6.70657,-1.292257 9.26529,-0.40327 2.27604,0.790773 3.53116,1.60623 5.25591,3.414789 3.52054,3.691607 4.50507,9.012701 2.50341,13.530281 l -0.59443,1.34157 z m -12.39787,54.15556 c 0.61363,-0.67682 7.8291,-22.88085 7.83754,-24.11832 0.006,-0.86621 -0.87278,-1.7447 -1.74508,-1.7447 -0.89821,0 -1.45433,0.74552 -2.14449,2.87482 -4.30553,13.28366 -6.77672,21.23592 -6.77672,21.8074 0,0.82388 0.92406,1.77611 1.72356,1.77611 0.311,0 0.80833,-0.26789 1.10519,-0.59531 z m -34.581549,-1.98438 -0.0028,-2.05052 -5.704737,-4.32064 -5.704736,-4.32064 1.540351,-1.19825 c 0.847193,-0.65905 3.415403,-2.58429 5.707129,-4.27832 l 4.16678,-3.08006 5.29e-4,-1.91823 c 2.64e-4,-1.68582 -0.05853,-1.91823 -0.486021,-1.91823 -0.589995,0 -14.45318,10.35346 -14.846007,11.08747 -0.551256,1.03003 -0.327803,2.05171 0.650568,2.97453 1.94694,1.8364 13.77755,11.03244 14.218849,11.05243 0.403175,0.0183 0.462658,-0.24405 0.460219,-2.02954 z M 140.2035,136.8888 c 3.71078,-2.83516 7.01476,-5.45986 7.34218,-5.83266 0.70383,-0.80138 0.77996,-2.11905 0.17253,-2.98627 -0.44859,-0.64046 -13.67343,-10.66868 -14.46002,-10.96485 -0.41692,-0.15698 -0.46303,0.0364 -0.46303,1.94219 v 2.11652 l 5.57204,4.13379 c 4.85144,3.59921 5.52272,4.18311 5.19077,4.51505 -0.20969,0.20969 -2.68733,2.12605 -5.50588,4.25857 l -5.12463,3.87731 -0.0773,2.05052 c -0.0581,1.54063 0.008,2.04979 0.26458,2.0476 0.18803,-0.002 3.37796,-2.32261 7.08874,-5.15777 z"
         id="path2" /></clipPath></defs><g
     inkscape:label="Capa 1"
     inkscape:groupmode="layer"
     id="layer1"><path
       style="fill:#00cccc;fill-opacity:1;stroke-width:10;stroke-dasharray:none"
       d="m 8.9919944,142.23806 c -2.48134,-0.77548 -4.76771,-2.66521 -5.84347,-4.82976 -0.91385,-1.83876 -1.17681,-3.37138 -1.07063,-6.23992 0.0941,-2.54328 0.17651,-2.90105 1.09624,-4.76201 1.51694,-3.06932 3.72828,-4.69896 7.1780996,-5.28989 4.07866,-0.69865 8.46192,1.33007 10.03614,4.64505 1.26505,2.66391 1.30421,2.57287 -1.1068,2.57287 -1.98651,0 -2.11461,-0.035 -2.26104,-0.61847 -0.39005,-1.55409 -2.31626,-2.95526 -4.4681,-3.2502 -2.44892,-0.33567 -4.8342796,1.06286 -6.0475996,3.5457 -0.50459,1.03255 -0.61218,1.68787 -0.6208,3.78126 -0.01,2.30611 0.0608,2.67157 0.78737,4.09223 1.77834,3.47728 6.1931996,4.39618 9.0538796,1.88446 0.51852,-0.45526 1.10522,-1.21657 1.30378,-1.69178 l 0.36101,-0.86403 h 1.98587 1.98586 l -0.17518,0.7276 c -0.66975,2.78175 -3.05053,5.24565 -6.03359,6.24424 -1.55411,0.52025 -4.58205,0.54612 -6.1610396,0.0526 z m 19.2554496,-0.1961 c -1.95534,-0.75075 -3.76105,-2.5842 -4.39506,-4.46258 -0.68042,-2.01587 -0.61676,-4.76933 0.15155,-6.55533 0.73142,-1.70023 2.69682,-3.53748 4.40792,-4.12051 1.6045,-0.54671 4.14774,-0.53691 5.78893,0.0223 1.81481,0.61837 3.85436,2.69649 4.47228,4.55686 0.64111,1.9302 0.46962,5.2557 -0.35327,6.85064 -1.85796,3.60111 -6.1941,5.19767 -10.07235,3.70862 z m 5.44106,-3.52883 c 1.17432,-0.8957 1.78065,-2.60754 1.63531,-4.61691 -0.1282,-1.77229 -0.63894,-2.67428 -2.06315,-3.64359 -1.75958,-1.19756 -4.36111,-0.52782 -5.50263,1.41661 -0.51375,0.8751 -0.59354,1.33695 -0.52827,3.05786 0.0687,1.81169 0.16379,2.13498 0.89484,3.0427 1.42554,1.77004 3.80163,2.08748 5.5639,0.74333 z m 12.07753,3.68694 c -1.62903,-0.59987 -3.59321,-2.48181 -4.31513,-4.13444 -0.46895,-1.07353 -0.612,-1.8943 -0.61802,-3.54596 -0.007,-1.89282 0.0934,-2.35462 0.84063,-3.87256 1.36017,-2.76291 3.63579,-4.15317 6.798,-4.15317 3.45059,0 6.12639,1.92941 7.026,5.06615 l 0.2131,0.74306 h -1.9079 c -1.8698,0 -1.91378,-0.0156 -2.20256,-0.78065 -0.46211,-1.22427 -1.79625,-1.91489 -3.4614,-1.79183 -2.38911,0.17657 -3.50697,1.7352 -3.49935,4.87909 0.003,1.36728 0.14503,2.0398 0.59532,2.82522 1.45874,2.54444 4.98428,2.63238 6.4078,0.15984 0.51974,-0.90273 0.57479,-0.92604 2.18728,-0.92604 1.8716,0 1.97782,0.16466 1.24288,1.92672 -0.52341,1.25494 -1.80961,2.5973 -3.16159,3.29967 -1.39691,0.72571 -4.57418,0.88336 -6.14506,0.3049 z m 42.706499,0.15279 c -1.07373,-0.32229 -2.4955,-1.47978 -2.98837,-2.43289 -0.30237,-0.58472 -0.39201,-1.28313 -0.31007,-2.41591 0.10747,-1.48575 0.19214,-1.66163 1.25314,-2.60319 1.32423,-1.17515 2.84555,-1.68805 6.21402,-2.095 1.31831,-0.15927 2.44746,-0.33846 2.50923,-0.39821 0.0618,-0.0597 0.002,-0.55018 -0.1323,-1.08986 -0.30403,-1.21967 -1.63226,-2.19007 -2.9957,-2.18866 -1.12257,0.001 -2.67259,0.86691 -2.86425,1.5998 -0.11486,0.43924 -0.37107,0.51588 -1.72462,0.51588 h -1.58971 l 0.16756,-0.8378 c 0.25798,-1.28989 1.33548,-2.48918 2.94303,-3.27568 1.32197,-0.64678 1.67386,-0.70381 3.68983,-0.598 1.89192,0.0993 2.42081,0.23579 3.5018,0.90371 0.8053,0.49757 1.51642,1.22037 1.93476,1.96653 0.64976,1.15892 0.66146,1.28272 0.66146,7.00061 v 5.82084 h -1.85209 -1.85208 l 0.0724,-0.91192 0.0724,-0.91192 -0.60159,0.56477 c -1.46641,1.37664 -4.1291,1.98115 -6.1089,1.3869 z m 4.70148,-3.01615 c 1.1716,-0.48953 1.71102,-1.35531 1.91441,-3.07269 l 0.16554,-1.39773 -2.02957,0.1535 c -2.33539,0.17662 -3.82455,0.80185 -4.40021,1.84742 -0.35816,0.65053 -0.3577,0.80428 0.004,1.45139 0.7523,1.34486 2.55352,1.76687 4.34555,1.01811 z m 25.172257,2.75352 c -1.97961,-0.77304 -3.59665,-2.55034 -3.59665,-3.95311 0,-0.48889 0.16302,-0.5423 1.6552,-0.5423 1.55102,0 1.67553,0.0458 1.97805,0.7276 0.42596,0.96 1.16592,1.38992 2.6708,1.55178 1.65926,0.17845 3.05304,-0.51311 3.17463,-1.57518 0.13576,-1.18576 -0.55412,-1.6749 -3.22172,-2.28428 -4.02606,-0.9197 -5.7278,-2.30406 -5.7278,-4.65953 0,-1.45195 0.2832,-2.17395 1.22567,-3.12482 1.22651,-1.23744 2.6204,-1.73571 4.87395,-1.74226 3.22421,-0.009 5.61039,1.49196 5.9792,3.76199 l 0.14012,0.86241 -1.63901,-0.0375 c -1.43454,-0.0328 -1.67749,-0.11467 -1.94749,-0.65624 -0.45581,-0.91427 -1.44205,-1.32792 -2.88043,-1.20813 -1.42143,0.11838 -2.31242,0.75763 -2.31242,1.65907 0,0.91339 1.07106,1.56984 3.59362,2.20252 3.92443,0.98428 5.36571,2.03454 5.59602,4.07782 0.1777,1.57658 -0.30007,2.89673 -1.39686,3.85973 -1.78825,1.5701 -5.61436,2.07639 -8.16488,1.08041 z m -60.218016,-10.38239 -5.6e-4,-10.64948 1.71553,0.0885 1.71552,0.0885 0.071,6.07309 0.071,6.0731 2.89665,-3.31734 2.89666,-3.31733 h 2.22309 2.22309 l -1.56627,1.65365 c -0.86146,0.9095 -2.18977,2.32707 -2.95181,3.15014 l -1.38553,1.49651 2.82657,4.32404 c 1.55462,2.37822 2.88576,4.47827 2.9581,4.66678 0.10228,0.26653 -0.33019,0.32542 -1.94494,0.26487 l -2.07646,-0.0779 -2.12353,-3.37717 -2.12353,-3.37716 -0.99219,1.09609 c -0.9896,1.09322 -0.99219,1.10221 -0.99219,3.44331 v 2.34722 h -1.71979 -1.71979 z m 20.39772,10.28318 c -1.10758,-0.40044 -2.22618,-1.69599 -2.63101,-3.04717 -0.17233,-0.57519 -0.30366,-2.80258 -0.30366,-5.15004 v -4.13649 h -1.19063 -1.19062 v -1.45521 -1.45521 h 1.19062 1.19063 v -2.11666 -2.11667 h 1.85208 1.85208 v 2.11667 2.11666 h 1.719789 1.7198 v 1.45521 1.45521 h -1.738 -1.737999 l 0.0844,4.20636 c 0.0989,4.93191 0.26193,5.31864 2.242029,5.31864 h 1.14962 v 1.5875 1.5875 l -1.65365,-0.0201 c -0.909499,-0.0111 -2.059449,-0.16685 -2.555429,-0.34617 z m 23.259066,-7.43891 v -7.80521 h 1.85208 1.85208 v 7.80521 7.80521 h -1.85208 -1.85208 z m 7.14066,7.73906 c -0.002,-0.0364 -0.0315,-4.79888 -0.0661,-10.58333 l -0.0631,-10.51719 h 1.78594 1.78594 v 10.58334 10.58333 h -1.71979 c -0.94589,0 -1.72118,-0.0298 -1.72288,-0.0662 z m -6.56933,-18.34909 c -1.34914,-0.94498 -1.20342,-2.94014 0.27041,-3.70229 1.53892,-0.7958 3.23284,0.19075 3.23284,1.88283 0,1.82996 -2.00302,2.87026 -3.50325,1.81946 z m -77.035896,-9.38806 c -0.65484,-0.12575 -1.95845,-0.61872 -2.89691,-1.09548 -3.06988,-1.55959 -4.95022,-4.67665 -5.23133,-8.67205 -0.52116,-7.40717 4.74105,-12.711122 11.5344,-11.625882 3.34894,0.535 5.74564,2.26663 7.06801,5.106662 0.93217,2.00203 0.91965,2.0213 -1.31395,2.0213 -1.90206,0 -1.9604,-0.0196 -2.26818,-0.76267 -1.11392,-2.68925 -5.35646,-3.891692 -8.08634,-2.29187 -2.25633,1.32229 -3.15738,3.47051 -2.98598,7.11897 0.12447,2.64965 0.61775,3.9616 1.97324,5.2481 2.53968,2.41042 6.86108,1.964 8.68933,-0.89764 l 0.79375,-1.24241 1.91823,-0.0144 c 2.25057,-0.0169 2.26201,0.007 1.11209,2.30809 -1.28253,2.56657 -3.60044,4.21954 -6.72757,4.79762 -1.74638,0.32283 -1.90581,0.32291 -3.57879,0.002 z m 18.25454,-0.22516 c -1.35043,-0.41078 -2.34215,-1.08866 -3.53713,-2.41777 -1.53869,-1.71139 -2.13556,-3.5567 -1.95711,-6.0507 0.32064,-4.48142 3.29173,-7.41414 7.55152,-7.45402 4.12285,-0.0386 6.76241,1.88225 7.88287,5.73649 1.20445,4.14317 -1.16355,8.89884 -4.99802,10.03756 -1.40187,0.41631 -3.8225,0.48901 -4.94213,0.14844 z m 3.48567,-3.20028 c 3.04286,-0.84515 4.06031,-5.81591 1.70223,-8.31621 -1.47515,-1.56411 -4.06222,-1.58402 -5.60312,-0.0431 -2.40918,2.40918 -1.63101,7.18003 1.34297,8.23365 1.29329,0.45818 1.35066,0.461 2.55792,0.12568 z m 13.41896,3.0976 c -3.07321,-1.14687 -4.99667,-4.16956 -4.99667,-7.85219 0,-4.35947 2.60251,-7.65944 6.22238,-7.88994 1.98684,-0.12651 3.29536,0.25909 4.51594,1.33077 l 0.90334,0.79315 V 96.8764 93.144818 h 1.85209 1.85208 v 10.583332 10.58334 h -1.85208 -1.85209 v -1.10784 -1.10783 l -0.7276,0.68075 c -1.61825,1.51406 -4.10939,2.12432 -5.91739,1.44961 z m 4.45364,-3.38216 c 1.55007,-0.75038 2.19135,-2.01919 2.19135,-4.3357 0,-2.08018 -0.42817,-3.21927 -1.57182,-4.18158 -0.69359,-0.58362 -1.1124,-0.71525 -2.27573,-0.71525 -1.21765,0 -1.56229,0.11992 -2.36172,0.82184 -2.49293,2.18882 -2.05294,7.03851 0.76513,8.43345 1.35823,0.67233 1.82365,0.66907 3.25279,-0.0228 z m 12.83714,2.93785 c -2.78062,-1.40646 -4.13403,-3.78655 -4.15234,-7.30227 -0.0101,-1.93918 0.077,-2.3161 0.91488,-3.95701 1.04452,-2.04571 2.51681,-3.3585 4.31061,-3.84364 1.44876,-0.39182 4.586449,-0.18315 5.665079,0.37675 2.25512,1.17059 3.78265,3.91236 3.78265,6.78948 v 1.56802 l -5.55629,-0.0566 c -5.400479,-0.055 -5.556119,-0.0417 -5.550439,0.47258 0.01,0.90218 0.97418,2.71457 1.69566,3.18731 1.55153,1.0166 3.774829,0.73024 5.020929,-0.64668 0.4252,-0.46983 0.80763,-0.55625 2.46173,-0.55625 h 1.95832 l -0.47798,0.83678 c -1.37054,2.39936 -3.53459,3.69801 -6.4311,3.85931 -1.817609,0.10122 -2.123649,0.0401 -3.641709,-0.72779 z m 7.081289,-9.4054 c 0,-0.76358 -0.81531,-1.99212 -1.66649,-2.51111 -2.16439,-1.31971 -5.127079,-0.14471 -5.864409,2.32581 l -0.17767,0.59532 h 3.854289 c 3.30453,0 3.85428,-0.0585 3.85428,-0.41002 z m 15.742697,9.94137 c -2.116117,-0.54403 -3.558957,-1.60017 -4.377217,-3.2041 -0.70283,-1.37766 -0.69074,-3.68577 0.0271,-5.16856 0.51053,-1.05464 1.98956,-2.62587 3.00854,-3.19613 0.40806,-0.22835 0.37193,-0.37885 -0.38209,-1.59183 -2.32315,-3.73718 0.22154,-8.024512 4.752207,-8.006592 1.87238,0.007 3.42934,0.7089 4.40109,1.98293 1.57155,2.060412 0.77033,4.908032 -1.93328,6.871052 -0.6041,0.43863 -1.10564,0.87973 -1.11453,0.98022 -0.009,0.1005 0.8218,1.08647 1.84598,2.19105 l 1.86214,2.00832 0.41176,-0.98547 c 0.22647,-0.54201 0.47564,-1.37915 0.55372,-1.86032 l 0.14197,-0.87484 h 1.66385 1.66384 l -0.26215,0.99219 c -0.14418,0.5457 -0.684,1.90395 -1.19958,3.01833 l -0.93743,2.02614 1.61778,2.27633 c 0.88979,1.25198 1.61779,2.33452 1.61779,2.40563 0,0.0711 -0.89542,0.1293 -1.98983,0.1293 h -1.98983 l -0.83067,-1.17849 -0.83068,-1.17849 -0.81751,0.69038 c -1.96069,1.65575 -4.53914,2.28065 -6.90294,1.67295 z m 4.78636,-3.62243 c 0.56896,-0.29526 1.03447,-0.67419 1.03447,-0.84205 0,-0.16787 -1.05709,-1.44374 -2.34909,-2.83527 l -2.3491,-2.53006 -0.78338,0.74454 c -1.070477,1.01741 -1.529877,1.9811 -1.529877,3.20926 0,1.12411 0.734397,2.30351 1.690177,2.71433 0.87284,0.37517 3.14703,0.13074 4.2868,-0.46075 z m -0.7828,-10.7689 c 1.35038,-1.35038 1.48993,-2.23829 0.50638,-3.221842 -1.30901,-1.30902 -3.84848,-0.4274 -3.84848,1.336052 0,0.65475 0.5589,2.00295 1.1238,2.71087 0.45958,0.57594 1.02911,0.36411 2.2183,-0.82508 z M 46.950164,82.804879 c -0.54759,-0.31894 -0.60995,-1.38158 -0.1104,-1.88114 0.19395,-0.19395 2.69426,-0.82369 5.55625,-1.39944 l 5.20362,-1.04681 V 64.135618 49.793758 l -0.62275,-0.74791 c -1.69265,-2.03283 -23.34121,-30.735858 -23.6527,-31.360248 -0.40949,-0.82084 -0.13815,-1.60039 0.71621,-2.05763 0.33242,-0.1779 7.96879,-0.27469 22.28508,-0.28246 l 21.77937,-0.0118 -4.62131,-4.518285 -4.6213,-4.5182834 0.78485,-0.640269 c 2.13834,-1.744438 6.80339,-3.26991 9.96796,-3.259527 7.134149,0.02341 13.614269,5.187606 15.419149,12.2879744 1.0633,4.18297 -0.22817,9.746379 -3.05999,13.181859 l -0.78822,0.95625 -4.06868,-4.15336 -4.06868,-4.153359 -0.61981,0.777359 c -0.34089,0.42756 -5.352539,7.03488 -11.136989,14.68294 l -10.51719,13.905579 v 14.29754 14.297551 l 5.14686,1.01505 c 5.16743,1.01911 5.96564,1.33262 5.96564,2.3431 0,0.23281 -0.1871,0.61038 -0.41577,0.83906 -0.36582,0.36582 -1.83614,0.41481 -12.23698,0.40773 -7.53578,-0.005 -11.98906,-0.10581 -12.28422,-0.27773 z M 77.396584,22.567219 80.115394,18.9292 69.670974,18.86 c -5.74443,-0.038 -15.19788,-0.038 -21.00767,0 l -10.56326,0.0692 2.5399,3.622329 2.5399,3.62233 15.74897,0.0157 15.74896,0.0157 z M 92.279693,19.84448 c 0.57961,-3.73566 -0.64191,-7.470203 -3.38384,-10.3453584 -1.72475,-1.808559 -2.97987,-2.624014 -5.2559,-3.414788 -2.55872,-0.888987 -6.592709,-0.713408 -9.265299,0.403269 l -0.90383,0.377646 3.20876,3.2087634 c 1.76482,1.76482 3.29871,3.109988 3.40864,2.989268 0.10992,-0.12072 0.51417,-1.171997 0.898309,-2.336164 0.38415,-1.1641664 0.79635,-2.2710474 0.916,-2.4597344 0.30061,-0.474064 2.66172,0.438707 4.35224,1.682512 1.96661,1.4469394 4.18479,5.2579264 3.45235,5.9313864 -0.12386,0.11388 -1.29676,0.59392 -2.60645,1.06674 -1.30969,0.47282 -2.43489,0.90769 -2.50046,0.96637 -0.0656,0.0587 1.30365,1.53543 3.04271,3.281639 l 3.16192,3.17494 0.59442,-1.34156 c 0.32694,-0.73787 0.72313,-2.17108 0.88043,-3.184929 z M 72.995354,75.407429 c -0.31848,-0.29671 -0.57905,-0.8532 -0.57905,-1.23663 0,-0.57149 2.47119,-8.523741 6.77672,-21.807411 0.69015,-2.1293 1.24628,-2.87482 2.144489,-2.87482 0.8723,0 1.75098,0.8785 1.74507,1.74471 -0.008,1.23747 -7.223899,23.441501 -7.837539,24.118311 -0.67079,0.73987 -1.49355,0.76029 -2.24969,0.0558 z m -39.66873,-5.109461 c -7.89764,-6.25273 -8.27073,-6.59643 -8.27073,-7.61912 0,-0.43431 0.12509,-1.02338 0.27798,-1.30906 0.39282,-0.734 14.25601,-11.08747 14.846,-11.08747 0.4275,0 0.48638,0.23242 0.48602,1.91823 l -4.1e-4,1.91823 -4.16677,3.08006 c -2.29173,1.69404 -4.85994,3.61928 -5.70713,4.27832 l -1.54035,1.19826 5.70473,4.32064 5.70474,4.320641 0.003,2.05052 c 0.002,1.78549 -0.057,2.04781 -0.46022,2.02954 -0.25466,-0.0115 -3.34916,-2.306 -6.87666,-5.098791 z m 56.078029,2.804661 0.0773,-2.05052 5.12463,-3.877311 c 2.81855,-2.13252 5.29619,-4.04887 5.505877,-4.25856 0.33195,-0.33195 -0.339337,-0.91585 -5.190767,-4.51505 l -5.57203,-4.1338 v -2.11652 c 0,-1.90576 0.0461,-2.09916 0.46302,-1.94219 0.78659,0.29618 14.011417,10.3244 14.460007,10.96485 0.60743,0.86723 0.53131,2.1849 -0.17252,2.98627 -0.83373,0.94929 -14.013497,10.986861 -14.430907,10.990431 -0.25685,0.002 -0.32264,-0.50697 -0.26458,-2.0476 z"
       id="path3" /></g></svg>
